<svg xmlns="http://www.w3.org/2000/svg" viewBox="0 0 375 812" width="375" height="812">
  <!-- Mobile Login Wireframe -->
  <title>Login - Mobile Wireframe</title>
  
  <!-- Background -->
  <rect width="375" height="812" fill="#f5f5f5"/>
  
  <!-- Status Bar -->
  <rect width="375" height="44" fill="#ffffff"/>
  <text x="187" y="28" text-anchor="middle" font-family="system-ui" font-size="14" fill="#333">9:41</text>
  
  <!-- Login Card -->
  <rect x="20" y="150" width="335" height="500" rx="16" fill="#ffffff" stroke="#e0e0e0"/>
  
  <!-- Logo placeholder -->
  <circle cx="187" cy="220" r="40" fill="#4A90E2" opacity="0.2"/>
  <circle cx="187" cy="220" r="30" fill="none" stroke="#4A90E2" stroke-width="3"/>
  <line x1="187" y1="195" x2="187" y2="205" stroke="#4A90E2" stroke-width="3" stroke-linecap="round"/>
  <line x1="187" y1="220" x2="200" y2="220" stroke="#4A90E2" stroke-width="2" stroke-linecap="round"/>
  
  <!-- Title -->
  <text x="187" y="290" text-anchor="middle" font-family="system-ui" font-size="24" font-weight="bold" fill="#333">TimeManager</text>
  <text x="187" y="315" text-anchor="middle" font-family="system-ui" font-size="14" fill="#666">Connectez-vous à votre compte</text>
  
  <!-- Email field -->
  <rect x="40" y="350" width="295" height="48" rx="8" fill="#f5f5f5" stroke="#e0e0e0"/>
  <text x="55" y="380" font-family="system-ui" font-size="14" fill="#999">exemple@entreprise.com</text>
  
  <!-- Password field -->
  <rect x="40" y="410" width="295" height="48" rx="8" fill="#f5f5f5" stroke="#e0e0e0"/>
  <text x="55" y="440" font-family="system-ui" font-size="14" fill="#999">••••••••</text>
  
  <!-- Remember me + Forgot -->
  <rect x="40" y="470" width="14" height="14" rx="3" fill="none" stroke="#4A90E2" stroke-width="2"/>
  <text x="60" y="482" font-family="system-ui" font-size="12" fill="#666">Se souvenir de moi</text>
  <text x="295" y="482" text-anchor="end" font-family="system-ui" font-size="12" fill="#4A90E2">Mot de passe oublié ?</text>
  
  <!-- Login Button -->
  <rect x="40" y="510" width="295" height="48" rx="8" fill="#4A90E2"/>
  <text x="187" y="540" text-anchor="middle" font-family="system-ui" font-size="16" font-weight="500" fill="#ffffff">Se connecter</text>
  
  <!-- Divider -->
  <line x1="40" y1="580" x2="160" y2="580" stroke="#e0e0e0" stroke-width="1"/>
  <text x="187" y="585" text-anchor="middle" font-family="system-ui" font-size="12" fill="#999">ou</text>
  <line x1="215" y1="580" x2="335" y2="580" stroke="#e0e0e0" stroke-width="1"/>
  
  <!-- Footer -->
  <text x="187" y="620" text-anchor="middle" font-family="system-ui" font-size="12" fill="#666">Pas encore de compte ?</text>
  <text x="187" y="640" text-anchor="middle" font-family="system-ui" font-size="12" fill="#4A90E2">Demander un accès</text>
  
  <!-- Annotation -->
  <rect x="20" y="720" width="335" height="60" rx="8" fill="#fff9c4" stroke="#ffc107"/>
  <text x="35" y="745" font-family="system-ui" font-size="11" fill="#856404">📱 Mobile Wireframe - 375x812</text>
  <text x="35" y="765" font-family="system-ui" font-size="11" fill="#856404">Formulaire de connexion responsive</text>
</svg>
