<svg xmlns="http://www.w3.org/2000/svg" viewBox="0 0 768 1024" width="768" height="1024">
  <!-- Tablet Login Wireframe -->
  <title>Login - Tablet Wireframe</title>
  
  <!-- Background -->
  <rect width="768" height="1024" fill="#f5f5f5"/>
  
  <!-- Login Card -->
  <rect x="84" y="150" width="600" height="600" rx="16" fill="#ffffff" stroke="#e0e0e0"/>
  
  <!-- Logo placeholder -->
  <circle cx="384" cy="250" r="50" fill="#4A90E2" opacity="0.2"/>
  <circle cx="384" cy="250" r="38" fill="none" stroke="#4A90E2" stroke-width="4"/>
  <line x1="384" y1="220" x2="384" y2="235" stroke="#4A90E2" stroke-width="4" stroke-linecap="round"/>
  <line x1="384" y1="250" x2="402" y2="250" stroke="#4A90E2" stroke-width="3" stroke-linecap="round"/>
  
  <!-- Title -->
  <text x="384" y="340" text-anchor="middle" font-family="system-ui" font-size="32" font-weight="bold" fill="#333">TimeManager</text>
  <text x="384" y="375" text-anchor="middle" font-family="system-ui" font-size="16" fill="#666">Connectez-vous à votre compte</text>
  
  <!-- Email field -->
  <text x="134" y="430" font-family="system-ui" font-size="14" font-weight="500" fill="#333">Adresse e-mail</text>
  <rect x="134" y="440" width="500" height="52" rx="8" fill="#f5f5f5" stroke="#e0e0e0"/>
  <text x="154" y="473" font-family="system-ui" font-size="15" fill="#999">exemple@entreprise.com</text>
  
  <!-- Password field -->
  <text x="134" y="520" font-family="system-ui" font-size="14" font-weight="500" fill="#333">Mot de passe</text>
  <rect x="134" y="530" width="500" height="52" rx="8" fill="#f5f5f5" stroke="#e0e0e0"/>
  <text x="154" y="563" font-family="system-ui" font-size="15" fill="#999">••••••••</text>
  
  <!-- Remember me + Forgot -->
  <rect x="134" y="605" width="16" height="16" rx="3" fill="none" stroke="#4A90E2" stroke-width="2"/>
  <text x="158" y="618" font-family="system-ui" font-size="14" fill="#666">Se souvenir de moi</text>
  <text x="634" y="618" text-anchor="end" font-family="system-ui" font-size="14" fill="#4A90E2">Mot de passe oublié ?</text>
  
  <!-- Login Button -->
  <rect x="134" y="650" width="500" height="52" rx="8" fill="#4A90E2"/>
  <text x="384" y="683" text-anchor="middle" font-family="system-ui" font-size="17" font-weight="500" fill="#ffffff">Se connecter</text>
  
  <!-- Footer -->
  <text x="384" y="740" text-anchor="middle" font-family="system-ui" font-size="14" fill="#666">Pas encore de compte ? <tspan fill="#4A90E2">Demander un accès</tspan></text>
  
  <!-- Annotation -->
  <rect x="84" y="850" width="600" height="60" rx="8" fill="#fff9c4" stroke="#ffc107"/>
  <text x="104" y="880" font-family="system-ui" font-size="12" fill="#856404">📱 Tablet Wireframe - 768x1024</text>
  <text x="104" y="900" font-family="system-ui" font-size="12" fill="#856404">Formulaire de connexion responsive tablette</text>
</svg>
